<svg width="182" height="82" viewBox="0 0 182 82" fill="none" xmlns="http://www.w3.org/2000/svg">
<g clip-path="url(#clip0)">
<path d="M169.442 54.9409C165.942 54.9409 162.484 53.7563 159.125 51.4784C158.695 51.1417 158.13 50.9936 157.6 50.9936C156.104 50.9936 154.9 52.1785 154.9 53.6291C154.9 54.6533 155.449 55.4437 156.015 55.8478C159.719 58.4938 164.673 60.1471 169.183 60.1471C172.603 60.1471 175.697 59.2012 177.948 57.4006C180.21 55.5911 181.589 52.9401 181.589 49.6171V49.4876C181.589 46.2872 180.094 44.1403 177.949 42.6171C175.835 41.1155 173.074 40.2065 170.492 39.4319L170.401 39.4042C168.185 38.7299 166.127 38.1036 164.61 37.272C163.078 36.4318 162.241 35.4637 162.241 34.1514V34.0219C162.241 32.796 162.792 31.7253 163.801 30.9481C164.819 30.1647 166.322 29.6687 168.212 29.6687C170.95 29.6687 173.907 30.6041 176.701 32.1918L176.712 32.1984L176.724 32.2043C177.038 32.3609 177.502 32.5159 178.048 32.5159C179.544 32.5159 180.748 31.3311 180.748 29.8805C180.748 28.6893 180.031 27.8339 179.276 27.381L179.266 27.3752L179.256 27.3698C175.959 25.5891 171.995 24.4625 168.342 24.4625C164.948 24.4625 161.981 25.4441 159.853 27.2063C157.717 28.9747 156.453 31.5096 156.453 34.5396V34.669C156.453 37.9421 158.021 40.0753 160.242 41.5561C162.43 43.0142 165.273 43.8572 167.881 44.5977L167.883 44.5983C170.093 45.2157 172.117 45.8318 173.59 46.6919C175.045 47.5421 175.866 48.5704 175.866 50.0053V50.1347C175.866 51.5851 175.22 52.7673 174.108 53.6012C172.985 54.4435 171.367 54.9409 169.442 54.9409Z" fill="black"/>
<g opacity="0.7" filter="url(#filter0_f)">
<path fill-rule="evenodd" clip-rule="evenodd" d="M147.153 61.6843C148.22 62.9906 147.29 64.9489 145.604 64.9489H136.072C135.472 64.9489 134.903 64.6794 134.523 64.2148L126.962 54.9662C126.617 54.5438 125.997 54.4762 125.569 54.8142L124.557 55.6125C124.317 55.8021 124.177 56.0914 124.177 56.3974V62.9489C124.177 64.0535 123.281 64.9489 122.177 64.9489H115C113.895 64.9489 113 64.0535 113 62.9489V6.99155C113 5.89061 113.89 4.99669 114.991 4.99157L122.167 4.95822C123.276 4.95307 124.177 5.85 124.177 6.9582V37.6389C124.177 38.5301 125.255 38.9761 125.884 38.3456L134.246 29.9731C134.622 29.5975 135.131 29.3865 135.661 29.3865H145.87C147.637 29.3865 148.536 31.51 147.306 32.7786L135.034 45.4368C134.681 45.801 134.656 46.372 134.977 46.7651L147.153 61.6843Z" fill="url(#paint0_linear)" fill-opacity="0.8"/>
</g>
<path fill-rule="evenodd" clip-rule="evenodd" d="M149.571 55.7354C150.637 57.0417 149.708 59 148.022 59H138.722C138.122 59 137.553 58.7305 137.174 58.2659L129.751 49.1872C129.406 48.7648 128.786 48.6972 128.358 49.0352L127.38 49.8065C127.14 49.9962 127 50.2854 127 50.5915V57C127 58.1046 126.105 59 125 59H118C116.895 59 116 58.1046 116 57V1.99073C116 0.889786 116.89 -0.00413478 117.991 -0.0092508L124.991 -0.0417798C126.099 -0.0469295 127 0.849996 127 1.9582V32.0837C127 32.9749 128.078 33.4209 128.708 32.7904L136.901 24.5867C137.276 24.2111 137.785 24 138.316 24H148.275C150.042 24 150.941 26.1235 149.711 27.3921L137.695 39.7864C137.342 40.1506 137.318 40.7216 137.639 41.1147L149.571 55.7354Z" fill="url(#paint1_linear)"/>
<path fill-rule="evenodd" clip-rule="evenodd" d="M70.7254 41.8507V41.7277C70.7254 32.3017 63.4568 24.1971 53.4408 24.1971C43.3608 24.1971 36.0333 32.4274 36.0333 41.8507V41.9737C36.0333 51.3997 43.3018 59.5043 53.3178 59.5043C63.3978 59.5043 70.7254 51.2741 70.7254 41.8507ZM65.0049 41.9737C65.0049 48.7642 60.1189 54.2144 53.4408 54.2144C46.9246 54.2144 41.7538 48.8015 41.7538 41.8507V41.7277C41.7538 34.9372 46.6398 29.4871 53.3178 29.4871C59.834 29.4871 65.0049 34.9 65.0049 41.8507V41.9737Z" fill="black"/>
<path fill-rule="evenodd" clip-rule="evenodd" d="M110.071 41.8507V41.7277C110.071 32.3017 102.802 24.1971 92.7861 24.1971C82.7061 24.1971 75.3786 32.4274 75.3786 41.8507V41.9737C75.3786 51.3997 82.6471 59.5043 92.6631 59.5043C102.743 59.5043 110.071 51.2741 110.071 41.8507ZM104.35 41.9737C104.35 48.7642 99.4641 54.2144 92.7861 54.2144C86.2699 54.2144 81.0991 48.8015 81.0991 41.8507V41.7277C81.0991 34.9372 85.9851 29.4871 92.6631 29.4871C99.1793 29.4871 104.35 34.9 104.35 41.8507V41.9737Z" fill="black"/>
<path d="M2.46043 57.8957C1.31396 57.8957 0.350636 57.1115 0.0775088 56.0503H0.000164997L0.000165048 55.464L0 55.4352V2.53598C0 1.17712 1.10157 0.0755463 2.46043 0.0755463C3.81929 0.0755463 4.92086 1.17712 4.92086 2.53598V27.2099C7.62175 24.8605 11.15 23.4495 14.7628 23.4495C22.2646 23.4495 29.5253 29.1282 29.5253 37.6757L29.5254 61.5863C29.5254 65.3762 31.051 67.3747 32.794 68.533C34.6883 69.7919 37.081 70.5 38.7519 70.5H181.167L166.167 82V75.1187L38.7519 75.1186C36.4862 75.1186 33.0354 74.6018 30.0704 72.6314C26.954 70.5604 24.6045 67.023 24.6045 61.5863L24.6045 37.6757C24.6045 32.2808 20.0032 28.3704 14.7628 28.3704C9.58693 28.3704 4.92103 32.6723 4.92103 37.6756L4.92103 56.0503H4.84335C4.57023 57.1115 3.6069 57.8957 2.46043 57.8957Z" fill="black"/>
</g>
<defs>
<filter id="filter0_f" x="107" y="-1.04181" width="46.8739" height="71.9907" filterUnits="userSpaceOnUse" color-interpolation-filters="sRGB">
<feFlood flood-opacity="0" result="BackgroundImageFix"/>
<feBlend mode="normal" in="SourceGraphic" in2="BackgroundImageFix" result="shape"/>
<feGaussianBlur stdDeviation="3" result="effect1_foregroundBlur"/>
</filter>
<linearGradient id="paint0_linear" x1="113.169" y1="18.2097" x2="150.916" y2="30.9435" gradientUnits="userSpaceOnUse">
<stop offset="0.015625" stop-color="#18D5FF"/>
<stop offset="0.166667" stop-color="#569CF4"/>
<stop offset="0.770833" stop-color="#FF447C"/>
<stop offset="1" stop-color="#FF8934"/>
</linearGradient>
<linearGradient id="paint1_linear" x1="116.167" y1="13" x2="153.316" y2="25.5324" gradientUnits="userSpaceOnUse">
<stop offset="0.015625" stop-color="#18D5FF"/>
<stop offset="0.166667" stop-color="#569CF4"/>
<stop offset="0.770833" stop-color="#FF447C"/>
<stop offset="1" stop-color="#FF8934"/>
</linearGradient>
<clipPath id="clip0">
<rect width="182" height="82" fill="white"/>
</clipPath>
</defs>
</svg>
